<svg xmlns="http://www.w3.org/2000/svg" xmlns:xlink="http://www.w3.org/1999/xlink" width="1832" zoomAndPan="magnify" viewBox="0 0 1374 314.999992" height="420" preserveAspectRatio="xMidYMid meet" version="1.0"><defs><filter x="0%" y="0%" width="100%" height="100%" id="a6de2d24f4"><feColorMatrix values="0 0 0 0 1 0 0 0 0 1 0 0 0 0 1 0 0 0 1 0" color-interpolation-filters="sRGB"/></filter><g/><clipPath id="5b5f0c967e"><path d="M 0 30 L 285 30 L 285 312 L 0 312 Z M 0 30 " clip-rule="nonzero"/></clipPath><mask id="4e32739ec1"><g filter="url(#a6de2d24f4)"><rect x="-137.4" width="1648.8" fill="#000000" y="-31.499999" height="377.99999" fill-opacity="0.8"/></g></mask><clipPath id="054f279dac"><rect x="0" width="260" y="0" height="87"/></clipPath></defs><rect x="-137.4" width="1648.8" fill="#ffffff" y="-31.499999" height="377.99999" fill-opacity="1"/><g clip-path="url(#5b5f0c967e)"><path fill="#00588d" d="M 122.109375 30.3125 C 68.265625 38.203125 22.171875 77.523438 6.34375 129.070312 C 1.664062 144.308594 0.914062 150.042969 0.914062 170.53125 C 0.914062 192.003906 1.660156 197.121094 7.425781 215.164062 C 17.941406 248.046875 43.851562 278.511719 75.863281 295.632812 C 84.339844 300.164062 94.789062 304.515625 95.496094 303.808594 C 95.785156 303.519531 93.261719 300.445312 89.890625 296.976562 C 82.269531 289.128906 78.617188 283.84375 71.9375 270.992188 C 50.726562 230.203125 43.085938 190.566406 49.183594 152.964844 C 54.292969 121.460938 67.945312 100.886719 91.390625 89.351562 C 102.503906 83.890625 109.132812 82.472656 123.703125 82.460938 C 138.570312 82.449219 145.519531 83.925781 158.632812 89.875 C 198.402344 107.914062 219.058594 154.648438 203.683594 191.792969 C 202.171875 195.4375 194.933594 206.289062 194.933594 204.90625 C 194.933594 204.640625 196.429688 200.386719 198.261719 195.453125 C 200.902344 188.324219 201.695312 184.273438 202.113281 175.777344 C 202.765625 162.402344 201.476562 156.183594 195.507812 143.953125 C 183.554688 119.449219 161.191406 104.226562 134.34375 102.320312 C 115.746094 101 101.878906 105.996094 88.332031 118.894531 C 71.839844 134.59375 64.167969 154.988281 64.167969 183.125 C 64.167969 217.566406 73.8125 252.554688 94.246094 292.257812 C 97.707031 298.984375 101.085938 304.996094 101.757812 305.621094 C 103.75 307.484375 117.035156 310.257812 129.785156 311.46875 C 148.066406 313.207031 169.460938 310.625 188.554688 304.371094 C 196.847656 301.65625 216.445312 291.546875 223.742188 286.21875 C 238.410156 275.507812 251.25 262.40625 260.542969 248.664062 C 269.519531 235.386719 278.070312 214.089844 281.664062 196.046875 C 284.273438 182.964844 284.273438 158.097656 281.664062 145.015625 C 277.890625 126.078125 270.59375 108.074219 260.328125 92.390625 C 247.304688 72.484375 225.945312 53.953125 203.710938 43.253906 C 197.71875 40.371094 192.144531 38.167969 191.320312 38.359375 C 190.304688 38.59375 192.019531 41.617188 196.636719 47.742188 C 208.179688 63.046875 215.589844 78.558594 223.558594 104.085938 C 234.886719 140.382812 237.523438 166.519531 232.777344 195.515625 C 230.03125 212.320312 222.636719 226.496094 210.328125 238.570312 C 198.679688 249.996094 186.542969 256.496094 170.675781 259.804688 C 160.28125 261.972656 152.171875 261.851562 141.484375 259.359375 C 110.550781 252.144531 86.117188 230.785156 76.207031 202.296875 C 73.539062 194.632812 73.296875 192.605469 73.324219 178.503906 C 73.351562 164.558594 73.628906 162.292969 76.234375 154.71875 C 79.507812 145.210938 83.109375 138.59375 87.007812 134.933594 C 88.9375 133.121094 89.683594 132.855469 89.683594 133.988281 C 89.683594 134.847656 89.285156 136.007812 88.796875 136.5625 C 87.5625 137.96875 84.796875 145.902344 82.832031 153.675781 C 78.417969 171.125 83.042969 189.132812 96.460938 206.761719 C 110.09375 224.667969 133.097656 236.976562 152.9375 236.976562 C 176.8125 236.976562 199.535156 221.949219 210.789062 198.71875 C 224.203125 171.03125 222.527344 127.429688 206.402344 84.417969 C 198.335938 62.902344 186.171875 37.328125 183.101562 35.429688 C 182.46875 35.039062 178.535156 33.808594 174.355469 32.691406 C 168.472656 31.117188 162.089844 30.566406 146.027344 30.253906 C 134.625 30.027344 123.863281 30.054688 122.109375 30.3125 M 316.613281 95.847656 C 316.332031 96.582031 316.226562 115.835938 316.382812 138.640625 L 316.660156 180.097656 L 334.734375 180.097656 L 335.027344 165.480469 L 335.324219 150.863281 L 347.253906 150.851562 C 366.117188 150.832031 374.339844 147.617188 380.753906 137.753906 C 383.40625 133.679688 383.636719 132.460938 383.636719 122.613281 C 383.636719 112.75 383.410156 111.5625 380.753906 107.550781 C 376.847656 101.644531 371.582031 97.84375 364.824219 96.042969 C 357.230469 94.023438 317.375 93.863281 316.613281 95.847656 M 415.691406 96.199219 C 401.175781 99.714844 392.417969 111.050781 394.335938 123.839844 C 396.132812 135.8125 403.832031 140.925781 429.6875 147.320312 C 433.96875 148.378906 438.394531 150.105469 439.523438 151.160156 C 442.363281 153.804688 442.089844 157.453125 438.828125 160.511719 C 436.34375 162.839844 435.195312 163.085938 426.867188 163.03125 C 417.144531 162.96875 412.550781 161.40625 404.65625 155.488281 L 401.226562 152.917969 L 396.417969 159.449219 C 393.773438 163.042969 391.609375 166.289062 391.609375 166.660156 C 391.609375 167.035156 393.300781 168.691406 395.371094 170.34375 C 405.003906 178.027344 421.320312 181.984375 434.242188 179.769531 C 446.585938 177.652344 452.632812 173.992188 458.15625 165.304688 C 459.628906 162.984375 460.132812 160.128906 460.152344 153.96875 C 460.179688 146.488281 459.886719 145.3125 456.945312 141.128906 C 452.832031 135.273438 445.871094 131.777344 430.179688 127.683594 C 413.136719 123.238281 410.035156 120.574219 414.910156 114.570312 C 416.769531 112.273438 417.710938 112.070312 425.808594 112.171875 C 434.894531 112.285156 442.765625 114.746094 445.820312 118.425781 C 446.550781 119.308594 447.542969 120.03125 448.023438 120.03125 C 448.503906 120.03125 451.125 117.136719 453.851562 113.59375 C 458.515625 107.53125 458.703125 107.039062 457.046875 105.210938 C 453.953125 101.792969 444.46875 97.5625 436.433594 96.015625 C 427.027344 94.210938 423.796875 94.238281 415.691406 96.199219 M 465.320312 95.316406 C 464.441406 95.894531 464.910156 97.363281 466.941406 100.375 C 470.175781 105.171875 479.113281 119.5 489.070312 135.863281 L 495.796875 146.914062 L 495.796875 180.71875 L 504.566406 180.40625 L 513.335938 180.097656 L 513.871094 162.027344 L 514.402344 143.953125 L 522.773438 131.195312 C 527.375 124.179688 534.429688 113.4375 538.449219 107.324219 C 542.464844 101.210938 545.351562 95.808594 544.863281 95.320312 C 544.375 94.832031 539.734375 94.570312 534.550781 94.738281 L 525.125 95.050781 L 515.511719 111.230469 C 510.222656 120.132812 505.539062 127.425781 505.109375 127.445312 C 504.675781 127.460938 502.855469 124.960938 501.0625 121.894531 C 499.273438 118.824219 494.835938 111.527344 491.203125 105.679688 L 484.601562 95.050781 L 475.582031 94.777344 C 470.621094 94.628906 466.003906 94.871094 465.320312 95.316406 M 578.988281 96.128906 C 566.140625 98.921875 555.644531 107.042969 549.316406 119.09375 C 546.5 124.449219 546.308594 125.632812 546.308594 137.574219 C 546.308594 149.515625 546.5 150.699219 549.316406 156.054688 C 556.03125 168.84375 567.371094 177.042969 581.9375 179.644531 C 596.25 182.203125 609.695312 177.605469 619.246094 166.890625 C 622.097656 163.691406 624.433594 160.761719 624.433594 160.382812 C 624.433594 159.394531 611.957031 152.988281 610.035156 152.988281 C 609.148438 152.988281 606.980469 154.632812 605.214844 156.640625 C 597.023438 165.972656 581.066406 165.800781 571.546875 156.285156 C 566.472656 151.207031 564.550781 146 564.605469 137.472656 C 564.660156 128.929688 566.40625 124.285156 571.527344 119.042969 C 576.050781 114.417969 580.03125 112.519531 586.660156 111.835938 C 594.183594 111.0625 599.410156 112.984375 604.777344 118.503906 L 609.214844 123.074219 L 616.824219 119.4375 C 621.007812 117.4375 624.433594 115.414062 624.433594 114.941406 C 624.433594 112.855469 613.589844 102.183594 608.878906 99.632812 C 603.816406 96.890625 593.796875 94.433594 588.359375 94.601562 C 586.859375 94.648438 582.640625 95.335938 578.988281 96.128906 M 636.632812 95.804688 C 636.339844 96.5625 636.226562 115.835938 636.382812 138.640625 L 636.660156 180.097656 L 653.667969 180.097656 L 654.203125 163.089844 L 654.734375 146.078125 L 693.484375 145.5 L 693.777344 162.800781 L 694.070312 180.097656 L 712.140625 180.097656 L 712.140625 95.050781 L 694.070312 95.050781 L 693.777344 112.347656 L 693.484375 129.648438 L 654.734375 129.070312 L 654.203125 112.058594 L 653.667969 95.050781 L 645.414062 94.738281 C 639.40625 94.511719 637.015625 94.804688 636.632812 95.804688 M 758.800781 96.101562 C 746.972656 98.671875 738.527344 104.453125 732.230469 114.289062 C 718.542969 135.671875 726.855469 165.703125 749.300781 175.957031 C 779.398438 189.703125 812.605469 169.570312 812.605469 137.574219 C 812.605469 121.894531 803.507812 106.582031 790.136719 99.761719 C 785.382812 97.335938 773.511719 94.515625 768.488281 94.621094 C 766.734375 94.65625 762.375 95.324219 758.800781 96.101562 M 825.851562 95.847656 C 825.566406 96.582031 825.464844 115.835938 825.617188 138.640625 L 825.894531 180.097656 L 850.347656 180.398438 C 863.796875 180.5625 875.894531 180.429688 877.238281 180.101562 C 879.535156 179.539062 879.65625 179.070312 879.363281 171.828125 L 879.050781 164.152344 L 861.246094 163.859375 L 843.4375 163.570312 L 843.4375 94.519531 L 834.898438 94.519531 C 829.039062 94.519531 826.199219 94.9375 825.851562 95.847656 M 918.917969 96 C 905.996094 98.875 895.285156 107.199219 889.457031 118.894531 C 886.722656 124.378906 886.507812 125.757812 886.507812 137.574219 C 886.507812 149.4375 886.714844 150.753906 889.507812 156.355469 C 893.433594 164.242188 901.730469 172.648438 908.757812 175.863281 C 931.726562 186.371094 958.0625 177.660156 968.261719 156.179688 C 971.308594 149.757812 971.542969 148.4375 971.542969 137.574219 C 971.542969 126.699219 971.3125 125.394531 968.253906 118.96875 C 962.378906 106.628906 950.835938 98.0625 936.90625 95.703125 C 928.492188 94.277344 926.496094 94.3125 918.917969 96 M 1018.320312 96.019531 C 1007.890625 98.136719 999.050781 103.59375 993.03125 111.640625 C 976.761719 133.386719 983.746094 164.378906 1007.441406 175.589844 C 1024.105469 183.472656 1042.710938 181.375 1057.902344 169.90625 L 1063.558594 165.636719 L 1062.972656 134.386719 L 1023.636719 134.386719 L 1023.636719 149.269531 L 1034.535156 149.570312 L 1045.429688 149.875 L 1045.429688 154.425781 C 1045.429688 158.632812 1045.128906 159.117188 1041.445312 160.894531 C 1036.394531 163.328125 1025.996094 164.210938 1020.363281 162.683594 C 1009.738281 159.808594 1003.507812 150.902344 1003.539062 138.636719 C 1003.578125 122.921875 1013.644531 111.613281 1027.65625 111.550781 C 1034.066406 111.519531 1038.703125 113.449219 1044.21875 118.429688 L 1048.558594 122.351562 L 1054.941406 118.472656 C 1058.453125 116.339844 1061.632812 114.101562 1062.003906 113.5 C 1062.847656 112.132812 1052.1875 101.703125 1047.398438 99.207031 C 1043.285156 97.066406 1032.542969 94.5625 1027.890625 94.660156 C 1026.132812 94.695312 1021.828125 95.308594 1018.320312 96.019531 M 1068.425781 95.355469 C 1068.113281 95.859375 1070.679688 100.78125 1074.121094 106.292969 C 1077.566406 111.804688 1082.402344 119.660156 1084.875 123.753906 C 1087.34375 127.847656 1091.320312 134.066406 1093.710938 137.574219 L 1098.054688 143.953125 L 1098.585938 162.027344 L 1099.117188 180.097656 L 1116.128906 180.097656 L 1116.660156 162.558594 C 1117.183594 145.234375 1117.230469 144.957031 1120.378906 140.230469 C 1122.132812 137.601562 1123.808594 134.96875 1124.101562 134.386719 C 1124.394531 133.800781 1127.933594 128.296875 1131.964844 122.160156 C 1136 116.019531 1141.558594 107.554688 1144.320312 103.347656 C 1150.148438 94.476562 1150.175781 94.519531 1137.964844 94.519531 C 1128.640625 94.519531 1128.964844 94.308594 1123.039062 104.210938 C 1111.632812 123.28125 1108.976562 127.472656 1108.335938 127.445312 C 1107.941406 127.425781 1103.296875 120.132812 1098.007812 111.230469 L 1088.390625 95.050781 L 1078.691406 94.746094 C 1073.355469 94.578125 1068.738281 94.851562 1068.425781 95.355469 M 335.265625 122.691406 L 335.265625 134.035156 L 347.46875 133.679688 C 359.171875 133.335938 359.796875 133.199219 362.617188 130.375 C 366.703125 126.285156 366.65625 119.046875 362.515625 114.902344 C 359.816406 112.203125 359.058594 112.042969 347.46875 111.703125 L 335.265625 111.34375 Z M 760.175781 113.066406 C 750.40625 116.554688 744.566406 125.71875 744.566406 137.574219 C 744.566406 144.839844 747.097656 151.910156 751.195312 156.101562 C 756.785156 161.820312 760.109375 163.074219 769.652344 163.066406 C 777.527344 163.0625 778.609375 162.792969 782.410156 159.929688 C 787.726562 155.917969 788.863281 154.527344 791.390625 148.914062 C 794.457031 142.121094 794.210938 132.097656 790.800781 124.886719 C 785.5625 113.816406 772.363281 108.722656 760.175781 113.066406 M 921.632812 112.238281 C 918.789062 113.046875 912.394531 117.199219 910.1875 119.667969 C 904.359375 126.195312 902.851562 141.296875 907.140625 150.164062 C 915.246094 166.898438 939.363281 168.355469 949.453125 152.714844 C 951.929688 148.882812 952.421875 146.835938 952.75 139.0625 C 953.296875 126.164062 950.445312 120.25 940.777344 114.226562 C 937.621094 112.257812 925.855469 111.035156 921.632812 112.238281 M 316.128906 231.777344 L 316.128906 255.277344 L 328.089844 254.871094 C 337.671875 254.542969 340.683594 254.050781 343.238281 252.390625 C 349.964844 248.019531 353.242188 242.601562 354.074219 234.464844 C 354.941406 226.027344 352.886719 220.222656 347.039062 214.554688 C 341.265625 208.960938 338.914062 208.273438 325.5625 208.273438 L 316.128906 208.273438 Z M 366.09375 231.660156 C 366.09375 254.339844 366.160156 255.050781 368.222656 255.050781 C 370.28125 255.050781 370.347656 254.339844 370.347656 231.660156 C 370.347656 208.980469 370.28125 208.273438 368.222656 208.273438 C 366.160156 208.273438 366.09375 208.980469 366.09375 231.660156 M 381.714844 209.070312 C 381.46875 209.507812 381.320312 219.914062 381.386719 232.191406 C 381.511719 254.492188 381.511719 254.519531 383.902344 254.859375 C 386.222656 255.1875 386.292969 254.925781 386.292969 246.085938 L 386.292969 236.976562 L 396.394531 237 L 402.652344 246.023438 C 407.652344 253.238281 409.4375 255.050781 411.542969 255.050781 C 414.164062 255.050781 414.167969 255.03125 412.316406 252.125 C 411.292969 250.519531 408.941406 247.050781 407.089844 244.417969 C 405.238281 241.785156 403.375 239.058594 402.949219 238.351562 C 402.457031 237.535156 403.445312 236.410156 405.660156 235.269531 C 410.347656 232.855469 412.691406 229.988281 413.5 225.675781 C 414.609375 219.765625 413.15625 215.121094 409.082031 211.542969 C 405.410156 208.316406 405.191406 208.273438 393.761719 208.273438 C 387.386719 208.273438 381.964844 208.632812 381.714844 209.070312 M 423.503906 231.660156 L 423.503906 255.050781 L 438.386719 255.050781 C 450.910156 255.050781 453.269531 254.796875 453.269531 253.453125 C 453.269531 252.128906 451.203125 251.859375 441.046875 251.859375 L 428.820312 251.859375 L 428.820312 233.785156 L 441.121094 233.785156 C 452.269531 233.785156 453.394531 233.613281 453.070312 231.925781 C 452.761719 230.308594 451.160156 230.027344 440.765625 229.765625 L 428.820312 229.464844 L 428.820312 211.460938 L 441.046875 211.460938 C 451.203125 211.460938 453.269531 211.191406 453.269531 209.867188 C 453.269531 208.523438 450.910156 208.273438 438.386719 208.273438 L 423.503906 208.273438 Z M 477.191406 209.125 C 469.0625 211.988281 463.984375 217.835938 461.746094 226.914062 C 459.003906 238.046875 466.335938 251.207031 476.859375 254.039062 C 483.996094 255.960938 492.71875 254.898438 497.894531 251.472656 C 500.324219 249.867188 502.121094 247.980469 501.890625 247.28125 C 501.242188 245.332031 497.710938 245.0625 496.691406 246.882812 C 495.363281 249.253906 485.980469 252.097656 482.351562 251.226562 C 474.429688 249.324219 470.324219 245.789062 467.527344 238.46875 C 463.308594 227.421875 469.867188 214.980469 481.171875 212.589844 C 485.753906 211.621094 492.578125 213.191406 495.4375 215.875 C 497.835938 218.128906 501.164062 218.214844 501.890625 216.039062 C 502.121094 215.34375 500.300781 213.441406 497.84375 211.8125 C 494.246094 209.433594 492.003906 208.808594 486.347656 208.617188 C 482.480469 208.484375 478.359375 208.714844 477.191406 209.125 M 506.425781 209.273438 C 506.425781 210.972656 508.132812 211.460938 514.570312 211.601562 C 517.984375 211.675781 521.132812 212.269531 521.5625 212.925781 C 521.992188 213.582031 522.347656 223.328125 522.359375 234.585938 C 522.371094 254.265625 522.453125 255.050781 524.476562 255.050781 C 526.496094 255.050781 526.59375 254.167969 526.871094 233.519531 L 527.15625 211.992188 L 534.335938 211.679688 C 539.761719 211.441406 541.511719 210.988281 541.511719 209.816406 C 541.511719 208.527344 538.609375 208.273438 523.96875 208.273438 C 513.71875 208.273438 506.425781 208.6875 506.425781 209.273438 M 321.179688 212.050781 C 320.738281 212.507812 320.382812 221.71875 320.382812 232.523438 L 320.382812 252.167969 L 328.230469 251.574219 C 342.628906 250.484375 349.085938 244.320312 349.085938 231.660156 C 349.085938 223.160156 345.882812 217.441406 339.171875 213.949219 C 335.792969 212.191406 322.40625 210.78125 321.179688 212.050781 M 386.292969 222.34375 L 386.292969 232.949219 L 394.902344 232.558594 C 402.773438 232.199219 403.730469 231.914062 406.066406 229.195312 C 409.058594 225.714844 409.488281 219.554688 406.984375 215.980469 C 404.984375 213.125 399.164062 211.449219 391.816406 211.613281 L 386.292969 211.738281 Z M 386.292969 222.34375 " fill-opacity="1" fill-rule="evenodd"/></g><g fill="#00588d" fill-opacity="1"><g transform="translate(329.845719, 159.645431)"><g><path d="M 7.71875 0 L 7.71875 -88.828125 L 42.765625 -88.828125 C 49.503906 -88.828125 55.242188 -87.546875 59.984375 -84.984375 C 64.722656 -82.429688 68.34375 -78.890625 70.84375 -74.359375 C 73.351562 -69.835938 74.609375 -64.628906 74.609375 -58.734375 C 74.609375 -52.828125 73.332031 -47.625 70.78125 -43.125 C 68.238281 -38.632812 64.5625 -35.125 59.75 -32.59375 C 54.9375 -30.0625 49.117188 -28.796875 42.296875 -28.796875 L 26.5 -28.796875 L 26.5 0 Z M 26.5 -43.84375 L 39.25 -43.84375 C 44.632812 -43.84375 48.648438 -45.222656 51.296875 -47.984375 C 53.941406 -50.753906 55.265625 -54.335938 55.265625 -58.734375 C 55.265625 -63.148438 53.941406 -66.707031 51.296875 -69.40625 C 48.648438 -72.113281 44.609375 -73.46875 39.171875 -73.46875 L 26.5 -73.46875 Z M 26.5 -43.84375 "/></g></g></g><g fill="#00588d" fill-opacity="1"><g transform="translate(408.962176, 159.645431)"><g><path d="M 55.90625 -63.28125 C 55.5625 -66.78125 54.066406 -69.5 51.421875 -71.4375 C 48.773438 -73.375 45.210938 -74.34375 40.734375 -74.34375 C 36.128906 -74.34375 32.597656 -73.398438 30.140625 -71.515625 C 27.679688 -69.640625 26.453125 -67.269531 26.453125 -64.40625 C 26.398438 -61.226562 27.769531 -58.820312 30.5625 -57.1875 C 33.351562 -55.550781 36.671875 -54.285156 40.515625 -53.390625 L 48.484375 -51.484375 C 53.640625 -50.328125 58.21875 -48.648438 62.21875 -46.453125 C 66.226562 -44.253906 69.378906 -41.425781 71.671875 -37.96875 C 73.972656 -34.519531 75.125 -30.320312 75.125 -25.375 C 75.09375 -17.25 72.046875 -10.773438 65.984375 -5.953125 C 59.929688 -1.140625 51.484375 1.265625 40.640625 1.265625 C 29.859375 1.265625 21.253906 -1.191406 14.828125 -6.109375 C 8.410156 -11.023438 5.085938 -18.285156 4.859375 -27.890625 L 23.03125 -27.890625 C 23.351562 -23.429688 25.109375 -20.082031 28.296875 -17.84375 C 31.492188 -15.601562 35.535156 -14.484375 40.421875 -14.484375 C 45.191406 -14.484375 49 -15.492188 51.84375 -17.515625 C 54.695312 -19.546875 56.140625 -22.179688 56.171875 -25.421875 C 56.140625 -28.421875 54.820312 -30.726562 52.21875 -32.34375 C 49.613281 -33.96875 45.898438 -35.359375 41.078125 -36.515625 L 31.40625 -38.953125 C 23.914062 -40.742188 18 -43.585938 13.65625 -47.484375 C 9.320312 -51.390625 7.171875 -56.613281 7.203125 -63.15625 C 7.171875 -68.53125 8.609375 -73.234375 11.515625 -77.265625 C 14.421875 -81.304688 18.414062 -84.445312 23.5 -86.6875 C 28.59375 -88.925781 34.378906 -90.046875 40.859375 -90.046875 C 47.453125 -90.046875 53.210938 -88.914062 58.140625 -86.65625 C 63.066406 -84.40625 66.90625 -81.269531 69.65625 -77.25 C 72.40625 -73.226562 73.820312 -68.570312 73.90625 -63.28125 Z M 55.90625 -63.28125 "/></g></g></g><g fill="#00588d" fill-opacity="1"><g transform="translate(488.946141, 159.645431)"><g><path d="M 2.515625 -88.828125 L 23.546875 -88.828125 L 43.8125 -50.578125 L 44.671875 -50.578125 L 64.9375 -88.828125 L 85.96875 -88.828125 L 53.5625 -31.40625 L 53.5625 0 L 34.921875 0 L 34.921875 -31.40625 Z M 2.515625 -88.828125 "/></g></g></g><g fill="#00588d" fill-opacity="1"><g transform="translate(572.009734, 159.645431)"><g><path d="M 86.09375 -57.734375 L 67.09375 -57.734375 C 66.375 -62.617188 64.289062 -66.457031 60.84375 -69.25 C 57.40625 -72.039062 53.113281 -73.4375 47.96875 -73.4375 C 41.09375 -73.4375 35.578125 -70.910156 31.421875 -65.859375 C 27.273438 -60.816406 25.203125 -53.671875 25.203125 -44.421875 C 25.203125 -34.929688 27.289062 -27.71875 31.46875 -22.78125 C 35.644531 -17.851562 41.101562 -15.390625 47.84375 -15.390625 C 52.84375 -15.390625 57.078125 -16.695312 60.546875 -19.3125 C 64.015625 -21.9375 66.195312 -25.617188 67.09375 -30.359375 L 86.09375 -30.28125 C 85.425781 -24.84375 83.488281 -19.722656 80.28125 -14.921875 C 77.070312 -10.117188 72.710938 -6.226562 67.203125 -3.25 C 61.691406 -0.269531 55.132812 1.21875 47.53125 1.21875 C 39.613281 1.21875 32.535156 -0.570312 26.296875 -4.15625 C 20.066406 -7.75 15.148438 -12.941406 11.546875 -19.734375 C 7.953125 -26.523438 6.15625 -34.753906 6.15625 -44.421875 C 6.15625 -54.097656 7.976562 -62.332031 11.625 -69.125 C 15.269531 -75.925781 20.210938 -81.113281 26.453125 -84.6875 C 32.703125 -88.257812 39.726562 -90.046875 47.53125 -90.046875 C 54.382812 -90.046875 60.566406 -88.78125 66.078125 -86.25 C 71.585938 -83.71875 76.097656 -80.046875 79.609375 -75.234375 C 83.117188 -70.421875 85.28125 -64.585938 86.09375 -57.734375 Z M 86.09375 -57.734375 "/></g></g></g><g fill="#00588d" fill-opacity="1"><g transform="translate(663.878502, 159.645431)"><g><path d="M 7.71875 0 L 7.71875 -88.828125 L 26.5 -88.828125 L 26.5 -52.171875 L 64.625 -52.171875 L 64.625 -88.828125 L 83.359375 -88.828125 L 83.359375 0 L 64.625 0 L 64.625 -36.6875 L 26.5 -36.6875 L 26.5 0 Z M 7.71875 0 "/></g></g></g><g fill="#00588d" fill-opacity="1"><g transform="translate(755.009905, 159.645431)"><g><path d="M 89.34375 -44.421875 C 89.34375 -34.734375 87.515625 -26.488281 83.859375 -19.6875 C 80.203125 -12.894531 75.234375 -7.710938 68.953125 -4.140625 C 62.679688 -0.566406 55.613281 1.21875 47.75 1.21875 C 39.851562 1.21875 32.769531 -0.570312 26.5 -4.15625 C 20.226562 -7.75 15.269531 -12.945312 11.625 -19.75 C 7.976562 -26.5625 6.15625 -34.785156 6.15625 -44.421875 C 6.15625 -54.097656 7.976562 -62.332031 11.625 -69.125 C 15.269531 -75.925781 20.226562 -81.113281 26.5 -84.6875 C 32.769531 -88.257812 39.851562 -90.046875 47.75 -90.046875 C 55.613281 -90.046875 62.679688 -88.257812 68.953125 -84.6875 C 75.234375 -81.113281 80.203125 -75.925781 83.859375 -69.125 C 87.515625 -62.332031 89.34375 -54.097656 89.34375 -44.421875 Z M 70.3125 -44.421875 C 70.3125 -53.835938 68.253906 -61.023438 64.140625 -65.984375 C 60.035156 -70.953125 54.570312 -73.4375 47.75 -73.4375 C 40.925781 -73.4375 35.460938 -70.953125 31.359375 -65.984375 C 27.253906 -61.023438 25.203125 -53.835938 25.203125 -44.421875 C 25.203125 -35.015625 27.253906 -27.820312 31.359375 -22.84375 C 35.460938 -17.875 40.925781 -15.390625 47.75 -15.390625 C 54.570312 -15.390625 60.035156 -17.875 64.140625 -22.84375 C 68.253906 -27.820312 70.3125 -35.015625 70.3125 -44.421875 Z M 70.3125 -44.421875 "/></g></g></g><g fill="#00588d" fill-opacity="1"><g transform="translate(850.522197, 159.645431)"><g><path d="M 7.71875 0 L 7.71875 -88.828125 L 26.5 -88.828125 L 26.5 -15.484375 L 64.578125 -15.484375 L 64.578125 0 Z M 7.71875 0 "/></g></g></g><g fill="#00588d" fill-opacity="1"><g transform="translate(916.36582, 159.645431)"><g><path d="M 89.34375 -44.421875 C 89.34375 -34.734375 87.515625 -26.488281 83.859375 -19.6875 C 80.203125 -12.894531 75.234375 -7.710938 68.953125 -4.140625 C 62.679688 -0.566406 55.613281 1.21875 47.75 1.21875 C 39.851562 1.21875 32.769531 -0.570312 26.5 -4.15625 C 20.226562 -7.75 15.269531 -12.945312 11.625 -19.75 C 7.976562 -26.5625 6.15625 -34.785156 6.15625 -44.421875 C 6.15625 -54.097656 7.976562 -62.332031 11.625 -69.125 C 15.269531 -75.925781 20.226562 -81.113281 26.5 -84.6875 C 32.769531 -88.257812 39.851562 -90.046875 47.75 -90.046875 C 55.613281 -90.046875 62.679688 -88.257812 68.953125 -84.6875 C 75.234375 -81.113281 80.203125 -75.925781 83.859375 -69.125 C 87.515625 -62.332031 89.34375 -54.097656 89.34375 -44.421875 Z M 70.3125 -44.421875 C 70.3125 -53.835938 68.253906 -61.023438 64.140625 -65.984375 C 60.035156 -70.953125 54.570312 -73.4375 47.75 -73.4375 C 40.925781 -73.4375 35.460938 -70.953125 31.359375 -65.984375 C 27.253906 -61.023438 25.203125 -53.835938 25.203125 -44.421875 C 25.203125 -35.015625 27.253906 -27.820312 31.359375 -22.84375 C 35.460938 -17.875 40.925781 -15.390625 47.75 -15.390625 C 54.570312 -15.390625 60.035156 -17.875 64.140625 -22.84375 C 68.253906 -27.820312 70.3125 -35.015625 70.3125 -44.421875 Z M 70.3125 -44.421875 "/></g></g></g><g fill="#00588d" fill-opacity="1"><g transform="translate(1011.878158, 159.645431)"><g><path d="M 66.625 -60.109375 C 65.4375 -64.273438 63.242188 -67.535156 60.046875 -69.890625 C 56.859375 -72.253906 52.847656 -73.4375 48.015625 -73.4375 C 41.222656 -73.4375 35.722656 -70.925781 31.515625 -65.90625 C 27.304688 -60.882812 25.203125 -53.75 25.203125 -44.5 C 25.203125 -35.21875 27.269531 -28.046875 31.40625 -22.984375 C 35.539062 -17.921875 41.132812 -15.390625 48.1875 -15.390625 C 54.4375 -15.390625 59.34375 -17.015625 62.90625 -20.265625 C 66.476562 -23.523438 68.320312 -27.898438 68.4375 -33.390625 L 49.359375 -33.390625 L 49.359375 -47.53125 L 86.53125 -47.53125 L 86.53125 -36.34375 C 86.53125 -28.570312 84.878906 -21.875 81.578125 -16.25 C 78.285156 -10.625 73.753906 -6.304688 67.984375 -3.296875 C 62.210938 -0.285156 55.585938 1.21875 48.109375 1.21875 C 39.773438 1.21875 32.457031 -0.625 26.15625 -4.3125 C 19.851562 -8 14.941406 -13.25 11.421875 -20.0625 C 7.910156 -26.875 6.15625 -34.960938 6.15625 -44.328125 C 6.15625 -53.929688 7.988281 -62.144531 11.65625 -68.96875 C 15.332031 -75.789062 20.304688 -81.007812 26.578125 -84.625 C 32.859375 -88.238281 39.90625 -90.046875 47.71875 -90.046875 C 54.425781 -90.046875 60.492188 -88.769531 65.921875 -86.21875 C 71.359375 -83.675781 75.8125 -80.15625 79.28125 -75.65625 C 82.757812 -71.164062 84.898438 -65.984375 85.703125 -60.109375 Z M 66.625 -60.109375 "/></g></g></g><g fill="#00588d" fill-opacity="1"><g transform="translate(1104.787927, 159.645431)"><g><path d="M 2.515625 -88.828125 L 23.546875 -88.828125 L 43.8125 -50.578125 L 44.671875 -50.578125 L 64.9375 -88.828125 L 85.96875 -88.828125 L 53.5625 -31.40625 L 53.5625 0 L 34.921875 0 L 34.921875 -31.40625 Z M 2.515625 -88.828125 "/></g></g></g><g mask="url(#4e32739ec1)"><g transform="matrix(1, 0, 0, 1, 332, 165)"><g clip-path="url(#054f279dac)"><g fill="#00588d" fill-opacity="1"><g transform="translate(0.457739, 69.486342)"><g><path d="M 22.5 0 L 5.703125 0 L 5.703125 -51.90625 L 23.046875 -51.90625 C 28.128906 -51.90625 32.492188 -50.867188 36.140625 -48.796875 C 39.796875 -46.734375 42.597656 -43.769531 44.546875 -39.90625 C 46.492188 -36.039062 47.46875 -31.414062 47.46875 -26.03125 C 47.46875 -20.625 46.484375 -15.976562 44.515625 -12.09375 C 42.546875 -8.207031 39.703125 -5.21875 35.984375 -3.125 C 32.273438 -1.039062 27.78125 0 22.5 0 Z M 13.53125 -6.84375 L 22.078125 -6.84375 C 26.023438 -6.84375 29.304688 -7.585938 31.921875 -9.078125 C 34.546875 -10.578125 36.507812 -12.75 37.8125 -15.59375 C 39.113281 -18.445312 39.765625 -21.925781 39.765625 -26.03125 C 39.765625 -30.101562 39.117188 -33.554688 37.828125 -36.390625 C 36.535156 -39.234375 34.613281 -41.390625 32.0625 -42.859375 C 29.507812 -44.328125 26.34375 -45.0625 22.5625 -45.0625 L 13.53125 -45.0625 Z M 13.53125 -6.84375 "/></g></g></g><g fill="#00588d" fill-opacity="1"><g transform="translate(51.95568, 69.486342)"><g><path d="M 13.53125 -51.90625 L 13.53125 0 L 5.703125 0 L 5.703125 -51.90625 Z M 13.53125 -51.90625 "/></g></g></g><g fill="#00588d" fill-opacity="1"><g transform="translate(71.191377, 69.486342)"><g><path d="M 5.703125 0 L 5.703125 -51.90625 L 24.203125 -51.90625 C 28.222656 -51.90625 31.5625 -51.210938 34.21875 -49.828125 C 36.882812 -48.441406 38.875 -46.523438 40.1875 -44.078125 C 41.507812 -41.640625 42.171875 -38.828125 42.171875 -35.640625 C 42.171875 -32.460938 41.507812 -29.664062 40.1875 -27.25 C 38.863281 -24.84375 36.867188 -22.972656 34.203125 -21.640625 C 31.546875 -20.304688 28.207031 -19.640625 24.1875 -19.640625 L 10.15625 -19.640625 L 10.15625 -26.390625 L 23.46875 -26.390625 C 26 -26.390625 28.0625 -26.75 29.65625 -27.46875 C 31.257812 -28.195312 32.429688 -29.253906 33.171875 -30.640625 C 33.921875 -32.023438 34.296875 -33.691406 34.296875 -35.640625 C 34.296875 -37.597656 33.914062 -39.296875 33.15625 -40.734375 C 32.40625 -42.171875 31.234375 -43.269531 29.640625 -44.03125 C 28.046875 -44.800781 25.957031 -45.1875 23.375 -45.1875 L 13.53125 -45.1875 L 13.53125 0 Z M 31.328125 -23.421875 L 44.15625 0 L 35.234375 0 L 22.65625 -23.421875 Z M 31.328125 -23.421875 "/></g></g></g><g fill="#00588d" fill-opacity="1"><g transform="translate(117.215127, 69.486342)"><g><path d="M 5.703125 0 L 5.703125 -51.90625 L 38.25 -51.90625 L 38.25 -45.171875 L 13.53125 -45.171875 L 13.53125 -29.34375 L 36.546875 -29.34375 L 36.546875 -22.640625 L 13.53125 -22.640625 L 13.53125 -6.734375 L 38.546875 -6.734375 L 38.546875 0 Z M 5.703125 0 "/></g></g></g><g fill="#00588d" fill-opacity="1"><g transform="translate(160.248355, 69.486342)"><g><path d="M 48.8125 -35.03125 L 40.90625 -35.03125 C 40.601562 -36.71875 40.035156 -38.203125 39.203125 -39.484375 C 38.378906 -40.773438 37.367188 -41.867188 36.171875 -42.765625 C 34.972656 -43.660156 33.632812 -44.332031 32.15625 -44.78125 C 30.675781 -45.238281 29.109375 -45.46875 27.453125 -45.46875 C 24.460938 -45.46875 21.785156 -44.710938 19.421875 -43.203125 C 17.066406 -41.703125 15.207031 -39.5 13.84375 -36.59375 C 12.488281 -33.6875 11.8125 -30.140625 11.8125 -25.953125 C 11.8125 -21.734375 12.488281 -18.171875 13.84375 -15.265625 C 15.207031 -12.359375 17.070312 -10.160156 19.4375 -8.671875 C 21.800781 -7.179688 24.460938 -6.4375 27.421875 -6.4375 C 29.066406 -6.4375 30.625 -6.660156 32.09375 -7.109375 C 33.570312 -7.554688 34.910156 -8.21875 36.109375 -9.09375 C 37.316406 -9.976562 38.335938 -11.054688 39.171875 -12.328125 C 40.003906 -13.609375 40.582031 -15.078125 40.90625 -16.734375 L 48.8125 -16.703125 C 48.394531 -14.148438 47.582031 -11.804688 46.375 -9.671875 C 45.164062 -7.535156 43.617188 -5.691406 41.734375 -4.140625 C 39.847656 -2.597656 37.695312 -1.40625 35.28125 -0.5625 C 32.863281 0.28125 30.226562 0.703125 27.375 0.703125 C 22.875 0.703125 18.867188 -0.363281 15.359375 -2.5 C 11.847656 -4.632812 9.082031 -7.695312 7.0625 -11.6875 C 5.039062 -15.675781 4.03125 -20.429688 4.03125 -25.953125 C 4.03125 -31.492188 5.039062 -36.253906 7.0625 -40.234375 C 9.09375 -44.210938 11.863281 -47.269531 15.375 -49.40625 C 18.894531 -51.550781 22.894531 -52.625 27.375 -52.625 C 30.125 -52.625 32.691406 -52.226562 35.078125 -51.4375 C 37.472656 -50.65625 39.625 -49.503906 41.53125 -47.984375 C 43.445312 -46.472656 45.03125 -44.628906 46.28125 -42.453125 C 47.53125 -40.285156 48.375 -37.8125 48.8125 -35.03125 Z M 48.8125 -35.03125 "/></g></g></g><g fill="#00588d" fill-opacity="1"><g transform="translate(212.734687, 69.486342)"><g><path d="M 3.140625 -45.171875 L 3.140625 -51.90625 L 43.3125 -51.90625 L 43.3125 -45.171875 L 27.125 -45.171875 L 27.125 0 L 19.3125 0 L 19.3125 -45.171875 Z M 3.140625 -45.171875 "/></g></g></g></g></g></g></svg>